<svg width="22" height="22" viewBox="0 0 23 23" fill="none" xmlns="http://www.w3.org/2000/svg">
  <path d="M10.5 6.2 7.4 8.5H5.1c-.92 0-1.67.74-1.67 1.67v3c0 .93.75 1.67 1.67 1.67h2.3l3.1 2.28V6.2Z" stroke="#646464" stroke-width="1.5" stroke-linecap="round" stroke-linejoin="round"/>
  <path d="M14.05 8.8c1.06.96 1.64 2.27 1.64 3.71s-.58 2.75-1.64 3.71" stroke="#646464" stroke-width="1.5" stroke-linecap="round"/>
  <path d="M15.95 7.1c1.55 1.42 2.36 3.3 2.36 5.41s-.81 3.99-2.36 5.41" stroke="#646464" stroke-width="1.5" stroke-linecap="round"/>
  <circle cx="17.9" cy="5.3" r="2.3" fill="none" stroke="#646464" stroke-width="1.3"/>
  <path d="M17.9 3.9V5.3M17.9 5.3v1.4M16.5 5.3h1.4M17.9 5.3h1.4" stroke="#646464" stroke-width="1.3" stroke-linecap="round"/>
</svg>
